<svg xmlns="http://www.w3.org/2000/svg" width="13" height="9" viewBox="0 0 13 9">
  <defs>
    <style>
      .cls-1 {
        fill: #6b7280;
      }
    </style>
  </defs>
  <g id="eye" transform="translate(0 -74.667)">
    <g id="Group_5306" data-name="Group 5306" transform="translate(0 74.667)">
      <g id="Group_5305" data-name="Group 5305" transform="translate(0 0)">
        <path id="Path_9946" data-name="Path 9946" class="cls-1" d="M172.39,170.667a1.723,1.723,0,1,0,1.723,1.723A1.724,1.724,0,0,0,172.39,170.667Z" transform="translate(-165.89 -167.89)"/>
        <path id="Path_9947" data-name="Path 9947" class="cls-1" d="M6.5,74.667a6.992,6.992,0,0,0-6.5,4.5,6.944,6.944,0,0,0,13,0A6.989,6.989,0,0,0,6.5,74.667Zm0,7.5a3,3,0,1,1,2.955-3A2.979,2.979,0,0,1,6.5,82.167Z" transform="translate(0 -74.667)"/>
      </g>
    </g>
  </g>
</svg>
