<svg xmlns="http://www.w3.org/2000/svg" width="202" height="136" viewBox="0 0 202 136">
  <defs>
    <style>
      .cls-1 {
        fill: none;
        stroke-linecap: round;
        stroke-width: 2px;
      }

      .cls-1, .cls-5 {
        stroke: #dedede;
      }

      .cls-2 {
        fill: #fafafa;
      }

      .cls-3, .cls-5 {
        fill: #dedede;
      }

      .cls-4 {
        fill: #fff;
      }
    </style>
  </defs>
  <g id="files_open" transform="translate(-946.813 -336.394)">
    <path id="Path_10277" data-name="Path 10277" class="cls-1" d="M13303.115,15576.86h15.24" transform="translate(-12178.943 -15105.467)"/>
    <path id="Path_10278" data-name="Path 10278" class="cls-1" d="M13303.115,15576.86h6.212" transform="translate(-12161.515 -15105.467)"/>
    <circle id="Ellipse_838" data-name="Ellipse 838" class="cls-2" cx="48.117" cy="48.117" r="48.117" transform="translate(1031.163 336.394)"/>
    <g id="Group_5525" data-name="Group 5525" transform="translate(989.09 347.391)">
      <path id="Path_10265" data-name="Path 10265" class="cls-3" d="M508.331,292.259H446.522a4.738,4.738,0,0,0-4.732,4.732v30.97H451.3a4.088,4.088,0,0,1,3.479,1.924l3.3,5.248,3.152,5.014.592.943,3.607,5.737.041.065h47.592v-49.9A4.738,4.738,0,0,0,508.331,292.259Z" transform="translate(-430.588 -292.259)"/>
      <path id="Path_10266" data-name="Path 10266" class="cls-4" d="M499.752,319.769H469.126a3.061,3.061,0,0,0,0,6.122h30.626a3.061,3.061,0,0,0,0-6.122Z" transform="translate(-446.509 -310.302)"/>
      <path id="Path_10267" data-name="Path 10267" class="cls-4" d="M516.732,363.449H469.4a3.342,3.342,0,1,0,0,6.683h47.33a3.342,3.342,0,0,0,0-6.683Z" transform="translate(-446.506 -339.156)"/>
      <path id="Path_10268" data-name="Path 10268" class="cls-4" d="M525.715,399.353a3.34,3.34,0,0,0-3.022-1.924h-47.33c-.072,0-.141,0-.213.007a4.1,4.1,0,0,1,1.511,1.425l3.3,5.248h42.736a3.337,3.337,0,0,0,3.022-4.756Z" transform="translate(-452.467 -361.54)"/>
      <path id="Path_10269" data-name="Path 10269" class="cls-4" d="M541.171,434.3a3.341,3.341,0,0,0-3.307-2.891H498.28l.592.943,3.607,5.737h35.385a3.3,3.3,0,0,0,1.938-.623,3.337,3.337,0,0,0,1.4-2.719,3.18,3.18,0,0,0-.031-.447Z" transform="translate(-467.637 -383.925)"/>
      <path id="Path_10270" data-name="Path 10270" class="cls-3" d="M580.079,326.317l-4.818-1.882L551.24,315.06,522.5,303.845a4.74,4.74,0,0,0-6.129,2.691l-1,2.578-2.392,6.122-3.476,8.91-2.609,6.683-1.955,5.011-2.609,6.68-1.958,5.014-.055.145-.313.8,3.607,5.737.041.065h66.8a4.1,4.1,0,0,1,3.2,1.528l.282-.716,3.448-8.831,5.389-13.811A4.741,4.741,0,0,0,580.079,326.317Z" transform="translate(-468.765 -299.646)"/>
      <path id="Path_10271" data-name="Path 10271" class="cls-4" d="M594.041,347.886l-2.574-1-25.955-10.128a3.063,3.063,0,1,0-2.227,5.706l8.573,3.345,10.6,4.137,9.006,3.517.348.134a3.062,3.062,0,1,0,2.227-5.706Z" transform="translate(-508.992 -321.304)"/>
      <path id="Path_10272" data-name="Path 10272" class="cls-4" d="M593.746,394.909l-12.926-5.045-9.227-3.6-4.928-1.924-12.837-5.011-4.171-1.628a3.342,3.342,0,0,0-4.209,1.628c-.041.086-.082.176-.117.268a3.34,3.34,0,0,0,1.9,4.326l1.067.416,17.111,6.68,15.414,6.016,10.5,4.1a3.341,3.341,0,1,0,2.43-6.226Z" transform="translate(-498.346 -348.436)"/>
      <path id="Path_10273" data-name="Path 10273" class="cls-4" d="M572.716,423.174l-.829-.323-8.111-3.166-7.41-2.891-12.85-5.014-6.215-2.426a3.341,3.341,0,0,0-2.426,6.226l3.111,1.215,15.521,6.057,1.6.623.165.065h18.381Z" transform="translate(-490.241 -369.268)"/>
      <path id="Path_10274" data-name="Path 10274" class="cls-4" d="M533.218,444.229l-1.6-.623L524.948,441a3.336,3.336,0,0,0-4.515,2.605,3.157,3.157,0,0,0-.038.623.366.366,0,0,0,0,.065h12.988Z" transform="translate(-482.14 -390.081)"/>
      <path id="Path_10275" data-name="Path 10275" class="cls-5" d="M474.1,413.553l-1.6-.623H447.533a3.167,3.167,0,0,0-.038.623h-3.414l.041.065h30.144Zm0,0h-30.02l.041.065h30.144Zm0,0h-30.02l.041.065h30.144Zm.165.065-.165-.065h-30.02l.041.065Zm-60.229,68.915a4.115,4.115,0,0,1-4.109-4.109V398.8a4.116,4.116,0,0,1,4.109-4.113h6.4V394h-6.4a4.806,4.806,0,0,0-4.8,4.8v79.625a4.8,4.8,0,0,0,2.812,4.364h60.631c-.055-.083-.11-.169-.165-.255Zm100.367-68.1a4.776,4.776,0,0,0-3.479-1.5H444.5l-3.717-5.912-.09-.145-3.152-5.014-3.531-5.616A4.81,4.81,0,0,0,429.954,394H414.038a4.806,4.806,0,0,0-4.8,4.8v79.625a4.8,4.8,0,0,0,2.812,4.364,4.733,4.733,0,0,0,1.986.434h96.887a4.75,4.75,0,0,0,1.989-.434,4.8,4.8,0,0,0,2.812-4.364V417.731a4.774,4.774,0,0,0-1.322-3.3Zm.633,63.994a4.116,4.116,0,0,1-4.113,4.109H414.037a4.115,4.115,0,0,1-4.109-4.109V398.8a4.116,4.116,0,0,1,4.109-4.113h15.917a4.088,4.088,0,0,1,3.479,1.924l3.3,5.248,3.152,5.014.592.943,3.607,5.737.041.065h66.8a4.116,4.116,0,0,1,4.113,4.113ZM474.1,413.553h-30.02l.041.065h30.144Zm0,0h-30.02l.041.065h30.144Zm0,0h-30.02l.041.065h30.144Zm0,0-1.6-.623h-28l-3.717-5.912-.313.8,3.607,5.737.041.065h30.144Z" transform="translate(-409.24 -359.977)"/>
    </g>
    <path id="Path_10276" data-name="Path 10276" class="cls-1" d="M13022.578,15576.86h170.587" transform="translate(-12074.766 -15105.467)"/>
    <path id="Path_10279" data-name="Path 10279" class="cls-1" d="M4.656,5.119,0,0" transform="translate(982.266 368.558) rotate(7)"/>
    <path id="Path_10280" data-name="Path 10280" class="cls-1" d="M4.656,5.119,0,0" transform="matrix(0.951, -0.309, 0.309, 0.951, 976.358, 375.152)"/>
    <path id="Path_10281" data-name="Path 10281" class="cls-1" d="M4.656,5.119,0,0" transform="translate(974.723 384.246) rotate(-49)"/>
  </g>
</svg>
