<svg id="folder" xmlns="http://www.w3.org/2000/svg" width="22" height="18" viewBox="0 0 22 18">
	<defs>
		<style>
			.cls-1 {
			fill: #fff;
			}
		</style>
	</defs>
	<g id="Group_5328" data-name="Group 5328">
		<g id="Group_5327" data-name="Group 5327" transform="translate(0 0)">
			<path id="Path_9974" data-name="Path 9974" class="cls-1" d="M17.688,50.039H6.115a.649.649,0,0,1-.649-.649v-.325A.662.662,0,0,0,4.8,48.4H1.324A1.324,1.324,0,0,0,0,49.727V60.865L1.7,52.6a.649.649,0,0,1,.636-.518H19.011v-.721A1.324,1.324,0,0,0,17.688,50.039Z" transform="translate(0 -48.403)" />
		</g>
	</g>
	<g id="Group_5330" data-name="Group 5330" transform="translate(0.296 4.784)">
		<g id="Group_5329" data-name="Group 5329" transform="translate(0 0)">
			<path id="Path_9975" data-name="Path 9975" class="cls-1" d="M27.152,162.01H9.263l-2.5,12.426a.654.654,0,0,0,.631.79H26.006a1.307,1.307,0,0,0,1.29-1.178l1.146-10.569A1.314,1.314,0,0,0,27.152,162.01Z" transform="translate(-6.746 -162.01)" />
		</g>
	</g>
</svg>
