<svg id="magnifying-glass-search" xmlns="http://www.w3.org/2000/svg" width="18" height="18" viewBox="0 0 18 18">
  <defs>
    <style>
      .cls-1 {
        fill: #6b7280;
      }
    </style>
  </defs>
  <path id="Path_9634" data-name="Path 9634" class="cls-1" d="M18.263,15.467l-4.322-4.452c-.31-.319-.7-.447-.865-.284s-.556.035-.866-.285l-.062-.064a6.483,6.483,0,1,0-1.116,1.148l.027.028c.309.319.425.71.256.872s-.054.553.257.872l4.32,4.454a.809.809,0,0,0,1.141.019l1.212-1.17A.8.8,0,0,0,18.263,15.467ZM10.145,9.628a4.468,4.468,0,1,1,0-6.309A4.489,4.489,0,0,1,10.145,9.628Z" transform="translate(-0.49 -0.001)"/>
</svg>
