<svg xmlns="http://www.w3.org/2000/svg" width="13.92" height="16" viewBox="0 0 13.92 16">
  <defs>
    <style>
      .cls-1 {
        fill: #2a9d8f;
      }
    </style>
  </defs>
  <g id="reload" transform="translate(-31.817 0)">
    <path id="Path_10297" data-name="Path 10297" class="cls-1" d="M39.542,15.956a7,7,0,0,0-.722-13.95V.123A.135.135,0,0,0,38.6.029L34.725,2.875a.119.119,0,0,0,0,.193L38.6,5.915a.136.136,0,0,0,.219-.095V3.941a5.069,5.069,0,1,1-5.086,5.877.964.964,0,0,0-1.906.291A7.008,7.008,0,0,0,39.542,15.956Z" transform="translate(0 0)"/>
  </g>
</svg>
