<svg id="reload" xmlns="http://www.w3.org/2000/svg" width="9" height="10" viewBox="0 0 9 10">
  <defs>
    <style>
      .cls-1 {
        fill: #6b7280;
      }
    </style>
  </defs>
  <path id="Path_9661" data-name="Path 9661" class="cls-1" d="M4.005,9.972A4.453,4.453,0,0,1,.03,6.138,4.433,4.433,0,0,1,4.472,1.253V.077A.088.088,0,0,1,4.614.018L7.12,1.8a.073.073,0,0,1,0,.121L4.614,3.7a.088.088,0,0,1-.142-.059V2.463A3.217,3.217,0,0,0,1.254,5.846,3.241,3.241,0,0,0,4.312,8.791,3.258,3.258,0,0,0,7.76,6.136a.619.619,0,0,1,.617-.5.605.605,0,0,1,.615.686A4.507,4.507,0,0,1,4.005,9.972Z" transform="translate(0 0)"/>
</svg>
