<svg xmlns="http://www.w3.org/2000/svg" width="16" height="16" viewBox="0 0 16 16">
  <defs>
    <style>
      .cls-1 {
        fill: #fff;
      }
    </style>
  </defs>
  <path id="save" class="cls-1" d="M15.791,4.183,11.817.209A1.486,1.486,0,0,0,11.19,0H2.405A2.367,2.367,0,0,0,0,2.405v11.19A2.367,2.367,0,0,0,2.405,16h11.19A2.367,2.367,0,0,0,16,13.595V4.81A1.486,1.486,0,0,0,15.791,4.183Zm-4.6,10.248H4.81V9.621h6.484v4.81Zm3.242-.837a.9.9,0,0,1-.837.837h-.837V8.784a.825.825,0,0,0-.837-.837H3.974a.887.887,0,0,0-.732.837v5.647H2.405a.9.9,0,0,1-.837-.837V2.405a.9.9,0,0,1,.837-.837h.837V4.81a.825.825,0,0,0,.837.837h6.379a.825.825,0,0,0,.837-.837.77.77,0,0,0-.837-.837H4.81V1.569h6.065l3.556,3.556v8.471Z"/>
</svg>
