<svg id="valid_green" xmlns="http://www.w3.org/2000/svg" width="25" height="24" viewBox="0 0 25 24">
	<defs>
		<style>
			.cls-1 {
			fill: none;
			}
			
			.cls-2 {
			fill: #2a9d8f;
			}
			
			.cls-3 {
			fill: #fff;
			}
		</style>
	</defs>
	<g id="Group_5533" data-name="Group 5533">
		<path id="Path_10289" data-name="Path 10289" class="cls-1" d="M4,0H18a4.012,4.012,0,0,1,4,4V16a4.012,4.012,0,0,1-4,4H4a4.012,4.012,0,0,1-4-4V4A4.012,4.012,0,0,1,4,0Z" />
	</g>
	<path id="Path_10154" class="cls-2" d="M5.3,10.3V9.4L8.5,8v.8l-2.4,1v.1L8.5,11v.8Zm6.8-3.2h.7L9.9,13.4H9.2Zm4.6,2.3v.9l-3.2,1.5V11l2.4-1.1V9.8L13.5,8.7V8Z" />
	<path id="Path_10290" data-name="Path 10290" class="cls-2" d="M18,0H4A4.012,4.012,0,0,0,0,4V16a4.012,4.012,0,0,0,4,4H18a4.012,4.012,0,0,0,4-4V4A4.012,4.012,0,0,0,18,0Zm2,16a2.006,2.006,0,0,1-2,2H4a2.006,2.006,0,0,1-2-2V4H20Z" />
	<path id="Path_10283" class="cls-2" d="M20,14a5,5,0,1,1-5,5A4.951,4.951,0,0,1,20,14Z" />
	<g id="Path_10155">
		<path id="Path_10291" data-name="Path 10291" class="cls-3" d="M19.5,21.9a.764.764,0,0,1-.5-.2l-2.2-1.9a.781.781,0,1,1,1-1.2L19.4,20l2.8-3a.778.778,0,0,1,1.1,1.1l-3.2,3.5A.864.864,0,0,1,19.5,21.9Z" />
	</g>
</svg>
