<svg version="1.1" viewBox="0.0 0.0 547.9238845144357 137.0682414698163" fill="none" stroke="none" stroke-linecap="square" stroke-miterlimit="10" xmlns:xlink="http://www.w3.org/1999/xlink" xmlns="http://www.w3.org/2000/svg"><clipPath id="p.0"><path d="m0 0l547.9239 0l0 137.06824l-547.9239 0l0 -137.06824z" clip-rule="nonzero"/></clipPath><g clip-path="url(#p.0)"><path fill="#000000" fill-opacity="0.0" d="m0 0l547.9239 0l0 137.06824l-547.9239 0z" fill-rule="evenodd"/><path fill="#000000" fill-opacity="0.0" d="m72.38845 -1.7335958l59.11811 0l0 135.74803l-59.11811 0z" fill-rule="evenodd"/><path fill="#b6d7a8" d="m91.52839 38.660774l0 -10.281248l14.6875 0q0.484375 0 1.34375 0.53125q0.875 0.53125 0.875 2.359375l0 22.749998q0 1.34375 0.609375 2.78125q0.625 1.4375 1.734375 2.453125q1.109375 1.0 2.453125 1.0l0 9.03125q-1.921875 0.28125 -3.359375 2.0625q-1.4375 1.78125 -1.4375 4.359375l0 23.8125q0 1.734375 -0.828125 2.296875q-0.8125 0.578125 -1.390625 0.578125l-14.6875 0l0 -10.265625l5.28125 0l0 -20.640625q0 -1.828125 0.90625 -3.59375q0.921875 -1.78125 2.453125 -3.03125q-1.53125 -1.34375 -2.453125 -3.015625q-0.90625 -1.6875 -0.90625 -3.609375l0 -19.578125l-5.28125 0z" fill-rule="nonzero"/><path fill="#000000" fill-opacity="0.0" d="m44.372704 16.845144l73.385826 0l0 113.10236l-73.385826 0z" fill-rule="evenodd"/><path fill="#dd7e6b" d="m72.668465 51.13202l0 -8.265625l11.84375 0q0.375 0 1.0625 0.421875q0.703125 0.421875 0.703125 1.890625l0 18.328125q0 1.078125 0.5 2.25q0.515625 1.15625 1.40625 1.96875q0.890625 0.8125 1.96875 0.8125l0 7.265625q-1.546875 0.234375 -2.71875 1.671875q-1.15625 1.421875 -1.15625 3.515625l0 19.171875q0 1.390625 -0.65625 1.84375q-0.65625 0.46875 -1.109375 0.46875l-11.84375 0l0 -8.265625l4.265625 0l0 -16.625q0 -1.46875 0.734375 -2.890625q0.734375 -1.4375 1.96875 -2.453125q-1.234375 -1.078125 -1.96875 -2.421875q-0.734375 -1.359375 -0.734375 -2.90625l0 -15.78125l-4.265625 0z" fill-rule="nonzero"/><path fill="#000000" fill-opacity="0.0" d="m20.501312 19.133858l99.52756 0l0 94.01575l-99.52756 0z" fill-rule="evenodd"/><path stroke="#999999" stroke-width="4.0" stroke-linejoin="round" stroke-linecap="butt" d="m20.501312 19.133858l99.52756 0l0 94.01575l-99.52756 0z" fill-rule="evenodd"/><path fill="#000000" fill-opacity="0.0" d="m37.929134 16.845144l73.38583 0l0 113.10236l-73.38583 0z" fill-rule="evenodd"/><path fill="#ffb449" d="m63.31976 51.13202l0 15.78125q0 1.546875 -0.703125 2.90625q-0.6875 1.34375 -1.921875 2.421875q1.15625 1.015625 1.890625 2.453125q0.734375 1.421875 0.734375 2.890625l0 16.625l4.249996 0l0 8.265625l-11.749996 0q-0.546875 0 -1.171875 -0.46875q-0.609375 -0.453125 -0.609375 -1.84375l0 -19.171875q0 -2.09375 -1.203125 -3.515625q-1.1875 -1.4375 -2.65625 -1.671875l0 -7.265625q1.078125 0 1.96875 -0.8125q0.890625 -0.8125 1.390625 -1.96875q0.5 -1.171875 0.5 -2.25l0 -18.328125q0 -1.46875 0.65625 -1.890625q0.65625 -0.421875 1.125 -0.421875l11.749996 0l0 8.265625l-4.249996 0z" fill-rule="nonzero"/><path fill="#000000" fill-opacity="0.0" d="m140.7769 -4.96063l407.1496 0l0 142.20473l-407.1496 0z" fill-rule="evenodd"/><path fill="#434343" d="m174.80815 101.31937l0 -62.01562l-21.984375 0l0 -7.703127l52.78125 0l0 7.703127l-22.078125 0l0 62.01562l-8.71875 0zm54.921234 0.8125q-6.390625 0 -10.59375 -0.765625q-4.203125 -0.75 -6.640625 -2.46875q-2.421875 -1.734375 -3.59375 -4.765625q-1.171875 -3.046875 -1.46875 -7.65625q-0.296875 -4.609375 -0.296875 -11.0q0 -6.375 0.296875 -10.984375q0.296875 -4.609371 1.46875 -7.640621q1.171875 -3.046875 3.59375 -4.765625q2.4375 -1.734375 6.640625 -2.484375q4.203125 -0.765625 10.59375 -0.765625q6.484375 0 10.625 0.765625q4.15625 0.75 6.640625 2.484375q2.484375 1.71875 3.640625 4.765625q1.171875 3.03125 1.46875 7.640621q0.3125 4.609375 0.3125 10.984375q0 6.390625 -0.3125 11.0q-0.296875 4.609375 -1.46875 7.65625q-1.15625 3.03125 -3.640625 4.765625q-2.484375 1.71875 -6.640625 2.46875q-4.140625 0.765625 -10.625 0.765625zm0 -7.0q5.46875 0 8.40625 -0.703125q2.9375 -0.703125 4.203125 -2.734375q1.265625 -2.03125 1.515625 -5.921875q0.265625 -3.90625 0.265625 -10.296875q0 -6.375 -0.265625 -10.28125q-0.25 -3.9062462 -1.515625 -5.921871q-1.265625 -2.03125 -4.203125 -2.734375q-2.9375 -0.71875 -8.40625 -0.71875q-5.375 0 -8.375 0.71875q-2.984375 0.703125 -4.203125 2.734375q-1.203125 2.015625 -1.515625 5.921871q-0.296875 3.90625 -0.296875 10.28125q0 6.390625 0.296875 10.296875q0.3125 3.890625 1.515625 5.921875q1.21875 2.03125 4.203125 2.734375q3.0 0.703125 8.375 0.703125zm37.997604 26.359375l0 -71.84375l7.5 0l0.296875 7.390625l0.609375 0q1.515625 -3.4375 4.140625 -5.265625q2.640625 -1.828125 5.984375 -2.375q3.34375 -0.5625 6.890625 -0.5625q5.578125 0 9.28125 1.21875q3.703125 1.203125 5.828125 4.203125q2.125 2.984375 3.03125 8.15625q0.921875 5.156246 0.921875 12.968746q0 7.90625 -0.875 13.125q-0.859375 5.21875 -2.984375 8.15625q-2.125 2.9375 -5.78125 4.203125q-3.640625 1.265625 -9.21875 1.265625q-4.140625 0 -7.390625 -0.65625q-3.25 -0.65625 -5.625 -2.28125q-2.375 -1.625 -3.796875 -4.46875l-0.515625 0l0 26.765625l-8.296875 0zm22.1875 -26.765625q4.65625 0 7.4375 -0.59375q2.796875 -0.609375 4.203125 -2.578125q1.421875 -1.984375 1.921875 -5.78125q0.515625 -3.8125 0.515625 -10.296875q0 -6.484375 -0.515625 -10.328125q-0.5 -3.8593712 -1.921875 -5.781246q-1.40625 -1.921875 -4.203125 -2.578125q-2.78125 -0.65625 -7.4375 -0.65625q-5.171875 0 -8.15625 1.46875q-2.984375 1.46875 -4.3125 4.609375q-1.015625 2.4218712 -1.21875 5.765621q-0.203125 3.34375 -0.203125 7.5q0 4.265625 0.203125 7.453125q0.203125 3.1875 1.015625 5.3125q1.421875 3.546875 4.453125 5.015625q3.046875 1.46875 8.21875 1.46875zm64.642975 7.40625q-7.296875 0 -12.265625 -0.859375q-4.953125 -0.859375 -8.09375 -3.03125q-3.140625 -2.1875 -4.8125 -6.1875q-1.671875 -4.015625 -2.28125 -10.296875q-0.609375 -6.28125 -0.609375 -15.296875q0 -9.015621 0.609375 -15.249996q0.609375 -6.234375 2.28125 -10.234375q1.671875 -4.0 4.8125 -6.21875q3.140625 -2.234375 8.09375 -3.093752q4.96875 -0.875 12.265625 -0.875q2.84375 0 5.828125 0.203125q2.984375 0.203125 5.71875 0.515625q2.75 0.296875 4.765625 0.8125019l0 6.984375q-2.328125 -0.296875 -4.8125 -0.546875q-2.484375 -0.265625 -4.921875 -0.359375q-2.421875 -0.109375 -4.34375 -0.109375q-5.875 0 -9.828125 0.515625q-3.953125 0.5 -6.28125 1.96875q-2.328125 1.46875 -3.5 4.5625q-1.171875 3.09375 -1.578125 8.21875q-0.390625 5.109375 -0.390625 12.906246q0 7.8125 0.390625 12.921875q0.40625 5.109375 1.578125 8.203125q1.171875 3.09375 3.5 4.5625q2.328125 1.46875 6.28125 1.984375q3.953125 0.5 9.828125 0.5q3.4375 0 7.484375 -0.296875q4.0625 -0.3125 7.0 -0.71875l0 7.203125q-2.125 0.40625 -5.015625 0.65625q-2.890625 0.25 -5.9375 0.453125q-3.03125 0.203125 -5.765625 0.203125zm51.685547 0q-6.390625 0 -10.59375 -0.765625q-4.203125 -0.75 -6.640625 -2.46875q-2.421875 -1.734375 -3.59375 -4.765625q-1.171875 -3.046875 -1.46875 -7.65625q-0.296875 -4.609375 -0.296875 -11.0q0 -6.375 0.296875 -10.984375q0.296875 -4.609371 1.46875 -7.640621q1.171875 -3.046875 3.59375 -4.765625q2.4375 -1.734375 6.640625 -2.484375q4.203125 -0.765625 10.59375 -0.765625q6.484375 0 10.625 0.765625q4.15625 0.75 6.640625 2.484375q2.484375 1.71875 3.640625 4.765625q1.171875 3.03125 1.46875 7.640621q0.3125 4.609375 0.3125 10.984375q0 6.390625 -0.3125 11.0q-0.296875 4.609375 -1.46875 7.65625q-1.15625 3.03125 -3.640625 4.765625q-2.484375 1.71875 -6.640625 2.46875q-4.140625 0.765625 -10.625 0.765625zm0 -7.0q5.46875 0 8.40625 -0.703125q2.9375 -0.703125 4.203125 -2.734375q1.265625 -2.03125 1.515625 -5.921875q0.265625 -3.90625 0.265625 -10.296875q0 -6.375 -0.265625 -10.28125q-0.25 -3.9062462 -1.515625 -5.921871q-1.265625 -2.03125 -4.203125 -2.734375q-2.9375 -0.71875 -8.40625 -0.71875q-5.375 0 -8.375 0.71875q-2.984375 0.703125 -4.203125 2.734375q-1.203125 2.015625 -1.515625 5.921871q-0.296875 3.90625 -0.296875 10.28125q0 6.390625 0.296875 10.296875q0.3125 3.890625 1.515625 5.921875q1.21875 2.03125 4.203125 2.734375q3.0 0.703125 8.375 0.703125zm51.87259 7.0q-5.671875 0 -9.46875 -1.3125q-3.796875 -1.328125 -5.671875 -4.5625q-1.875 -3.25 -1.875 -9.125q0 -5.875 1.359375 -9.265625q1.375 -3.40625 4.8125 -4.8125q3.453125 -1.421875 9.625 -1.421875q1.015625 0 3.1875 0.046875q2.1875 0.046875 5.015625 0.109375q2.84375 0.046875 5.734375 0.09375q2.890625 0.046875 5.3125 0.15625l0 -3.25q0 -4.5625 -0.5625 -7.140621q-0.546875 -2.578125 -2.265625 -3.84375q-1.71875 -1.265625 -4.8125 -1.625q-3.09375 -0.359375 -8.15625 -0.359375q-2.234375 0 -5.28125 0.15625q-3.03125 0.15625 -5.921875 0.40625q-2.890625 0.25 -4.609375 0.5625l0 -6.6875q3.859375 -0.71875 8.671875 -1.0625q4.8125 -0.359375 9.96875 -0.359375q5.484375 0 9.28125 0.65625q3.796875 0.65625 6.171875 2.078125q2.390625 1.421875 3.59375 3.75q1.21875 2.328125 1.671875 5.671875q0.46875 3.3437462 0.46875 7.796871l0 32.53125l-7.40625 0l-0.296875 -7.296875l-0.609375 0q-1.625 3.546875 -4.609375 5.328125q-2.984375 1.765625 -6.53125 2.265625q-3.546875 0.515625 -6.796875 0.515625zm3.046875 -6.796875q2.9375 0 5.46875 -0.34375q2.53125 -0.359375 4.453125 -1.375q1.921875 -1.015625 3.046875 -3.03125q1.109375 -2.140625 1.5625 -4.609375q0.453125 -2.484375 0.453125 -5.828125l0 -2.640625l-17.21875 0q-3.953125 0 -6.078125 0.609375q-2.125 0.609375 -2.890625 2.53125q-0.765625 1.921875 -0.765625 5.78125q0 3.75 0.90625 5.671875q0.921875 1.921875 3.5 2.578125q2.59375 0.65625 7.5625 0.65625zm44.586548 5.984375l0 -44.687496l-10.4375 0l0 -6.984375l10.4375 0l0 -15.0l8.203125 0l0 15.0l12.359375 0l0 6.984375l-12.359375 0l0 44.687496l-8.203125 0z" fill-rule="nonzero"/><path fill="#000000" fill-opacity="0.0" d="m8.692913 -1.7335958l59.118107 0l0 135.74803l-59.118107 0z" fill-rule="evenodd"/><path fill="#a2c4c9" d="m43.395348 38.660774l0 19.578125q0 1.921875 -0.875 3.609375q-0.859375 1.671875 -2.390625 3.015625q1.4375 1.25 2.34375 3.03125q0.921875 1.765625 0.921875 3.59375l0 20.640625l5.265625 0l0 10.265625l-14.578125 0q-0.671875 0 -1.453125 -0.578125q-0.765625 -0.5625 -0.765625 -2.296875l0 -23.8125q0 -2.578125 -1.484375 -4.359375q-1.484375 -1.78125 -3.3125 -2.0625l0 -9.03125q1.34375 0 2.4375 -1.0q1.109375 -1.015625 1.734375 -2.453125q0.625 -1.4375 0.625 -2.78125l0 -22.749998q0 -1.828125 0.8125 -2.359375q0.828125 -0.53125 1.40625 -0.53125l14.578125 0l0 10.281248l-5.265625 0z" fill-rule="nonzero"/></g></svg>